<svg xmlns="http://www.w3.org/2000/svg" viewBox="0 0 1200 720" role="img" aria-label="JKUN technical log cover">
  <defs>
    <linearGradient id="bg" x1="0" x2="1" y1="0" y2="1">
      <stop offset="0" stop-color="#f7fbff"/>
      <stop offset="0.46" stop-color="#e8f3ff"/>
      <stop offset="1" stop-color="#d8ebff"/>
    </linearGradient>
    <linearGradient id="panel" x1="0" x2="1">
      <stop offset="0" stop-color="#ffffff"/>
      <stop offset="1" stop-color="#f4f9ff"/>
    </linearGradient>
    <filter id="shadow" x="-20%" y="-20%" width="140%" height="140%">
      <feDropShadow dx="0" dy="20" stdDeviation="24" flood-color="#2267aa" flood-opacity=".16"/>
    </filter>
  </defs>
  <rect width="1200" height="720" fill="url(#bg)"/>
  <g opacity=".38" stroke="#9dcbff" stroke-width="2">
    <path d="M60 142h1080M60 262h1080M60 382h1080M60 502h1080M180 60v600M420 60v600M660 60v600M900 60v600"/>
  </g>
  <g filter="url(#shadow)">
    <rect x="145" y="120" width="910" height="480" rx="26" fill="url(#panel)"/>
    <rect x="145" y="120" width="910" height="70" rx="26" fill="#ffffff"/>
    <circle cx="190" cy="156" r="10" fill="#ff5f57"/>
    <circle cx="226" cy="156" r="10" fill="#ffbd2e"/>
    <circle cx="262" cy="156" r="10" fill="#28c840"/>
    <rect x="330" y="145" width="455" height="20" rx="10" fill="#dcecff"/>
    <rect x="198" y="240" width="280" height="32" rx="16" fill="#409eff"/>
    <rect x="198" y="304" width="430" height="18" rx="9" fill="#b8d9ff"/>
    <rect x="198" y="344" width="354" height="18" rx="9" fill="#d3e9ff"/>
    <rect x="198" y="414" width="210" height="46" rx="12" fill="#ecf5ff"/>
    <rect x="432" y="414" width="210" height="46" rx="12" fill="#ecf5ff"/>
    <rect x="666" y="414" width="210" height="46" rx="12" fill="#ecf5ff"/>
    <g fill="none" stroke="#409eff" stroke-width="18" stroke-linecap="round" stroke-linejoin="round">
      <path d="M805 292l54 54-54 54"/>
      <path d="M735 292l-54 54 54 54"/>
      <path d="M780 270l-48 152"/>
    </g>
  </g>
  <text x="198" y="540" fill="#1f2d3d" font-family="Arial, Helvetica, sans-serif" font-size="44" font-weight="700">JKUN Technical Log</text>
  <text x="198" y="582" fill="#5f7188" font-family="Arial, Helvetica, sans-serif" font-size="24">Maintenance notes, incident reviews, deployment records</text>
</svg>
